<?xml version="1.0" encoding="UTF-8"?>
<svg width="22px" height="15px" viewBox="0 0 22 15" version="1.1" xmlns="http://www.w3.org/2000/svg" xmlns:xlink="http://www.w3.org/1999/xlink">
    <!-- Generator: Sketch 53 (72520) - https://sketchapp.com -->
    <title>Shape</title>
    <desc>Created with Sketch.</desc>
    <g id="Page-1" stroke="none" stroke-width="1" fill="none" fill-rule="evenodd">
        <g id="Desktop-HD" transform="translate(-1314.000000, -137.000000)" fill="#B9B9B9" fill-rule="nonzero">
            <g id="round-remove_red_eye-24px" transform="translate(1314.000000, 132.000000)">
                <path d="M11,5 C6,5 1.73,8.11 0,12.5 C1.73,16.89 6,20 11,20 C16,20 20.27,16.89 22,12.5 C20.27,8.11 16,5 11,5 Z M11,17.5 C8.24,17.5 6,15.26 6,12.5 C6,9.74 8.24,7.5 11,7.5 C13.76,7.5 16,9.74 16,12.5 C16,15.26 13.76,17.5 11,17.5 Z M11,9.5 C9.34,9.5 8,10.84 8,12.5 C8,14.16 9.34,15.5 11,15.5 C12.66,15.5 14,14.16 14,12.5 C14,10.84 12.66,9.5 11,9.5 Z" id="Shape"></path>
            </g>
        </g>
    </g>
</svg>