<?xml version="1.0" encoding="UTF-8"?>
<svg width="22px" height="18px" viewBox="0 0 22 18" version="1.1" xmlns="http://www.w3.org/2000/svg" xmlns:xlink="http://www.w3.org/1999/xlink">
    <!-- Generator: Sketch 53 (72520) - https://sketchapp.com -->
    <title>Shape</title>
    <desc>Created with Sketch.</desc>
    <g id="Page-1" stroke="none" stroke-width="1" fill="none" fill-rule="evenodd">
        <g id="Desktop-HD" transform="translate(-1361.000000, -135.000000)" fill="#B9B9B9" fill-rule="nonzero">
            <g id="round-remove_red_eye-24px" transform="translate(1314.000000, 132.000000)">
                <g id="round-aspect_ratio-24px" transform="translate(46.000000, 0.000000)">
                    <path d="M18,12 C17.45,12 17,12.45 17,13 L17,15 L15,15 C14.45,15 14,15.45 14,16 C14,16.55 14.45,17 15,17 L18,17 C18.55,17 19,16.55 19,16 L19,13 C19,12.45 18.55,12 18,12 Z M7,9 L9,9 C9.55,9 10,8.55 10,8 C10,7.45 9.55,7 9,7 L6,7 C5.45,7 5,7.45 5,8 L5,11 C5,11.55 5.45,12 6,12 C6.55,12 7,11.55 7,11 L7,9 Z M21,3 L3,3 C1.9,3 1,3.9 1,5 L1,19 C1,20.1 1.9,21 3,21 L21,21 C22.1,21 23,20.1 23,19 L23,5 C23,3.9 22.1,3 21,3 Z M20,19.01 L4,19.01 C3.45,19.01 3,18.56 3,18.01 L3,5.99 C3,5.44 3.45,4.99 4,4.99 L20,4.99 C20.55,4.99 21,5.44 21,5.99 L21,18.01 C21,18.56 20.55,19.01 20,19.01 L20,19.01 Z" id="Shape"></path>
                </g>
            </g>
        </g>
    </g>
</svg>