<?xml version="1.0" encoding="UTF-8"?>
<svg width="159px" height="58px" viewBox="0 0 159 58" version="1.1" xmlns="http://www.w3.org/2000/svg" xmlns:xlink="http://www.w3.org/1999/xlink">
    <!-- Generator: Sketch 53 (72520) - https://sketchapp.com -->
    <title>logo</title>
    <desc>Created with Sketch.</desc>
    <defs>
        <filter x="-68.2%" y="-300.0%" width="236.4%" height="700.0%" filterUnits="objectBoundingBox" id="filter-1">
            <feGaussianBlur stdDeviation="5" in="SourceGraphic"></feGaussianBlur>
        </filter>
        <linearGradient x1="100%" y1="86.6150415%" x2="4.16744088%" y2="86.6150415%" id="linearGradient-2">
            <stop stop-color="#BBDDF1" offset="0%"></stop>
            <stop stop-color="#2E9DE5" offset="100%"></stop>
        </linearGradient>
        <path d="M5.61937234,5.78725729 L18.9534212,5.78725729 C26.3272658,5.78725729 32.3062916,11.7623968 32.311086,19.1362399 L32.3191144,31.4839216 C32.3194735,32.0362063 31.8720494,32.4842125 31.3197648,32.4845716 C31.3193313,32.4845719 31.3188979,32.4845719 31.3184644,32.4845716 L18.9695689,32.4765432 C11.5950554,32.4717488 5.61937234,26.4921795 5.61937234,19.1176645 L5.61937234,5.78725729 Z" id="path-3"></path>
        <linearGradient x1="43.0421061%" y1="28.6427219%" x2="22.1060882%" y2="50%" id="linearGradient-5">
            <stop stop-color="#3588C5" offset="0%"></stop>
            <stop stop-color="#87C4EC" offset="100%"></stop>
        </linearGradient>
        <radialGradient cx="40.8231589%" cy="65.2758964%" fx="40.8231589%" fy="65.2758964%" r="98.8400494%" gradientTransform="translate(0.408232,0.652759),scale(0.653564,1.000000),rotate(90.000000),translate(-0.408232,-0.652759)" id="radialGradient-6">
            <stop stop-color="#0D5FC8" stop-opacity="0" offset="0%"></stop>
            <stop stop-color="#6C64FF" stop-opacity="0" offset="64.5903716%"></stop>
            <stop stop-color="#0E64CB" offset="100%"></stop>
        </radialGradient>
        <path d="M3.97179715,18.4588594 L14.93984,7.49081655 C20.0412319,2.38942463 28.3122224,2.38942463 33.4136143,7.49081655 C33.5400255,7.61722771 33.6638283,7.74622054 33.7849446,7.87771353 L33.7928733,7.88632152 C35.1946262,9.40817022 36.1889105,11.1617755 36.7804362,13.0122537 L28.2771302,20.8112878 C21.6296442,26.9082072 11.2982624,26.4618848 5.20134307,19.8143988 C5.18047961,19.7916513 5.15968067,19.7688447 5.13894651,19.7459793 L3.97179715,18.4588594 Z" id="path-7"></path>
        <linearGradient x1="-3.50901305%" y1="59.5989304%" x2="97.1775984%" y2="38.3296881%" id="linearGradient-8">
            <stop stop-color="#002BAE" offset="0%"></stop>
            <stop stop-color="#1A95E3" offset="100%"></stop>
        </linearGradient>
    </defs>
    <g id="logo" stroke="none" stroke-width="1" fill="none" fill-rule="evenodd">
        <g id="Group-2">
            <ellipse id="Oval" fill="#378FF2" opacity="0.472516741" filter="url(#filter-1)" transform="translate(26.000000, 41.500000) scale(1, -1) translate(-26.000000, -41.500000) " cx="26" cy="41.5" rx="11" ry="2.5"></ellipse>
            <path d="M65.0110937,17.5961801 C69.1547628,17.5961801 72.3469228,20.8594816 72.3469228,24.9699864 C72.3469228,29.0804911 69.1547628,32.3437926 65.0110937,32.3437926 L61.2357507,32.3437926 L61.2357507,39.5607094 L57,39.5607094 L57,17.5961801 L65.0110937,17.5961801 Z M65.0110937,28.2960437 C66.8220306,28.2960437 68.1418659,26.8526603 68.1418659,24.9699864 C68.1418659,23.0559345 66.8220306,21.6439291 65.0110937,21.6439291 L61.2357507,21.6439291 L61.2357507,28.2960437 L65.0110937,28.2960437 Z M78.2060369,26.5702592 C79.0040768,24.4365621 80.9377891,23.5579809 82.8715014,23.5579809 L82.8715014,28.0763984 C80.8150137,27.8253752 78.2060369,28.7667121 78.2060369,32.0613915 L78.2060369,39.5607094 L74.2465308,39.5607094 L74.2465308,23.8717599 L78.2060369,23.8717599 L78.2060369,26.5702592 Z M86.7969032,21.9890859 C85.4770678,21.9890859 84.3720894,20.8594816 84.3720894,19.5102319 C84.3720894,18.1609823 85.4770678,17 86.7969032,17 C88.1474324,17 89.2524108,18.1609823 89.2524108,19.5102319 C89.2524108,20.8594816 88.1474324,21.9890859 86.7969032,21.9890859 Z M84.8324971,39.5607094 L84.8324971,23.8717599 L88.7920031,23.8717599 L88.7920031,39.5607094 L84.8324971,39.5607094 Z M109.046531,23.4324693 C112.545629,23.4324693 114.847668,25.9740791 114.847668,29.8963165 L114.847668,39.5607094 L110.888162,39.5607094 L110.888162,30.1787176 C110.888162,28.3274216 109.967346,27.1978172 108.309878,27.1978172 C106.560329,27.1978172 105.455351,28.3901774 105.455351,30.7435198 L105.455351,39.5607094 L101.495845,39.5607094 L101.495845,30.1787176 C101.495845,28.3274216 100.575029,27.1978172 98.9175617,27.1978172 C97.2294002,27.1978172 96.0323402,28.3901774 96.0323402,30.7435198 L96.0323402,39.5607094 L92.0728342,39.5607094 L92.0728342,23.8717599 L96.0323402,23.8717599 L96.0323402,25.5347885 C96.8917679,24.2169168 98.3343787,23.4324693 100.298785,23.4324693 C102.201803,23.4324693 103.61372,24.2482947 104.473148,25.691678 C105.424657,24.2796726 106.959349,23.4324693 109.046531,23.4324693 Z M121.228577,33.3792633 C121.781066,35.4502046 123.469228,36.3287858 125.556409,36.3287858 C127.091102,36.3287858 128.318855,35.6698499 128.99412,34.7598909 L132.18628,36.6425648 C130.743669,38.7762619 128.441631,40 125.495022,40 C120.338456,40 117.084908,36.3915416 117.084908,31.7162347 C117.084908,27.0409277 120.369149,23.4324693 125.188083,23.4324693 C129.730772,23.4324693 132.953626,27.1036835 132.953626,31.7162347 C132.953626,32.3124147 132.892238,32.845839 132.800157,33.3792633 L121.228577,33.3792633 Z M121.167189,30.2414734 L128.99412,30.2414734 C128.503018,27.9822647 126.845551,27.0723056 125.188083,27.0723056 C123.070208,27.0723056 121.627597,28.2332879 121.167189,30.2414734 Z M139.334535,26.5702592 C140.132575,24.4365621 142.066288,23.5579809 144,23.5579809 L144,28.0763984 C141.943512,27.8253752 139.334535,28.7667121 139.334535,32.0613915 L139.334535,39.5607094 L135.375029,39.5607094 L135.375029,23.8717599 L139.334535,23.8717599 L139.334535,26.5702592 Z" id="Primer" fill="#233B78" fill-rule="nonzero"></path>
            <g id="Group">
                <g id="Group-55" transform="translate(28.822296, 29.209787) rotate(-47.000000) translate(-28.822296, -29.209787) translate(8.822296, 8.709787)">
                    <g id="Group-56" transform="translate(0.135598, 0.012639)">
                        <g id="Combined-Shape" transform="translate(0.187556, 0.444971)">
                            <mask id="mask-4" fill="white">
                                <use xlink:href="#path-3"></use>
                            </mask>
                            <use id="Mask" fill="url(#linearGradient-2)" transform="translate(18.969243, 19.135915) rotate(-43.000000) translate(-18.969243, -19.135915) " xlink:href="#path-3"></use>
                            <g mask="url(#mask-4)" transform="translate(20.376117, 14.386041) rotate(-176.000000) translate(-20.376117, -14.386041) ">
                                <use fill="url(#linearGradient-5)" xlink:href="#path-7"></use>
                                <use fill="url(#radialGradient-6)" xlink:href="#path-7"></use>
                            </g>
                        </g>
                    </g>
                </g>
                <path d="M6.7721629,28.1672664 L16.4467999,18.4926294 C21.3089227,13.6305066 29.0502911,13.4024598 34.1825028,17.808489 L35.4672314,19.2530299 L25.3546745,28.4714038 C20.0240593,33.3306697 11.8697697,33.1386222 6.7721629,28.1672664 Z" id="Combined-Shape" fill="url(#linearGradient-8)" transform="translate(21.119697, 23.337376) rotate(-45.000000) translate(-21.119697, -23.337376) "></path>
            </g>
        </g>
    </g>
</svg>