<?xml version="1.0" encoding="UTF-8"?>
<svg width="15px" height="15px" viewBox="0 0 15 15" version="1.1" xmlns="http://www.w3.org/2000/svg" xmlns:xlink="http://www.w3.org/1999/xlink">
    <!-- Generator: Sketch 53 (72520) - https://sketchapp.com -->
    <title>Shape</title>
    <desc>Created with Sketch.</desc>
    <g id="Page-1" stroke="none" stroke-width="1" fill="none" fill-rule="evenodd">
        <g id="Desktop-HD" transform="translate(-20.000000, -463.000000)" fill="#979797" fill-rule="nonzero">
            <g id="round-texture-24px" transform="translate(17.000000, 460.000000)">
                <path d="M16.7583333,3.06666667 L3.06666667,16.7583333 C3.14166667,17.0416667 3.29166667,17.3 3.49166667,17.5083333 C3.7,17.7083333 3.95833333,17.8583333 4.24166667,17.9333333 L17.9416667,4.24166667 C17.7833333,3.66666667 17.3333333,3.21666667 16.7583333,3.06666667 Z M10.4,3 L3,10.4 L3,12.7583333 L12.7583333,3 L10.4,3 Z M4.66666667,3 C3.75,3 3,3.75 3,4.66666667 L3,6.33333333 L6.33333333,3 L4.66666667,3 Z M16.3333333,18 C16.7916667,18 17.2083333,17.8166667 17.5083333,17.5083333 C17.8166667,17.2083333 18,16.7916667 18,16.3333333 L18,14.6666667 L14.6666667,18 L16.3333333,18 Z M8.24166667,18 L10.6,18 L18,10.6 L18,8.24166667 L8.24166667,18 Z" id="Shape"></path>
            </g>
        </g>
    </g>
</svg>