<?xml version="1.0" encoding="UTF-8"?>
<svg width="18px" height="16px" viewBox="0 0 18 16" version="1.1" xmlns="http://www.w3.org/2000/svg" xmlns:xlink="http://www.w3.org/1999/xlink">
    <!-- Generator: Sketch 53 (72520) - https://sketchapp.com -->
    <title>round-web_asset-24px</title>
    <desc>Created with Sketch.</desc>
    <g id="Page-1" stroke="none" stroke-width="1" fill="none" fill-rule="evenodd">
        <g id="Desktop-HD" transform="translate(-19.000000, -240.000000)" fill="#979797" fill-rule="nonzero">
            <g id="round-web_asset-24px" transform="translate(19.000000, 240.000000)">
                <path d="M16,0 L2,0 C0.89,0 0,0.9 0,2 L0,14 C0,15.1 0.89,16 2,16 L16,16 C17.1,16 18,15.1 18,14 L18,2 C18,0.9 17.11,0 16,0 Z M15,14 L3,14 C2.45,14 2,13.55 2,13 L2,4 L16,4 L16,13 C16,13.55 15.55,14 15,14 Z" id="Shape"></path>
            </g>
        </g>
    </g>
</svg>